solid  Processed by ADMesh version 0.95
  facet normal  3.01131636E-01 -2.20221530E-08  9.53582585E-01
    outer loop
      vertex -2.10000000E+01  1.69396210E+01  9.80000019E+00
      vertex -2.06849995E+01  1.65559998E+01  9.70052624E+00
      vertex -1.91000004E+01  1.90009995E+01  9.19999981E+00
    endloop
  endfacet
  facet normal  0.00000000E+00 -1.00000000E+00  0.00000000E+00
    outer loop
      vertex -1.30000000E+01 -1.00100005E+00 -1.00000005E-03
      vertex -1.31000004E+01 -1.00100005E+00  1.89999998E+00
      vertex -1.36999998E+01 -1.00100005E+00  3.79999995E+00
    endloop
  endfacet
  facet normal  0.00000000E+00 -1.00000000E+00  0.00000000E+00
    outer loop
      vertex -1.30000000E+01 -1.00100005E+00 -1.00000005E-03
      vertex -1.36999998E+01 -1.00100005E+00  3.79999995E+00
      vertex -1.46000004E+01 -1.00100005E+00  5.50000000E+00
    endloop
  endfacet
  facet normal  0.00000000E+00 -1.00000000E+00  0.00000000E+00
    outer loop
      vertex -1.30000000E+01 -1.00100005E+00 -1.00000005E-03
      vertex -1.46000004E+01 -1.00100005E+00  5.50000000E+00
      vertex -1.58999996E+01 -1.00100005E+00  7.00000000E+00
    endloop
  endfacet
  facet normal  0.00000000E+00 -1.00000000E+00  0.00000000E+00
    outer loop
      vertex -1.30000000E+01 -1.00100005E+00 -1.00000005E-03
      vertex -1.58999996E+01 -1.00100005E+00  7.00000000E+00
      vertex -1.73999996E+01 -1.00100005E+00  8.30000019E+00
    endloop
  endfacet
  facet normal  0.00000000E+00 -1.00000000E+00  0.00000000E+00
    outer loop
      vertex -1.30000000E+01 -1.00100005E+00 -1.00000005E-03
      vertex -1.73999996E+01 -1.00100005E+00  8.30000019E+00
      vertex -1.91000004E+01 -1.00100005E+00  9.19999981E+00
    endloop
  endfacet
  facet normal  0.00000000E+00 -1.00000000E+00  0.00000000E+00
    outer loop
      vertex -1.30000000E+01 -1.00100005E+00 -1.00000005E-03
      vertex -1.91000004E+01 -1.00100005E+00  9.19999981E+00
      vertex -2.10000000E+01 -1.00100005E+00  9.80000019E+00
    endloop
  endfacet
  facet normal  0.00000000E+00 -1.00000000E+00  0.00000000E+00
    outer loop
      vertex -1.30000000E+01 -1.00100005E+00 -1.00000005E-03
      vertex -2.10000000E+01 -1.00100005E+00  9.80000019E+00
      vertex -2.30000000E+01 -1.00100005E+00  9.90100002E+00
    endloop
  endfacet
  facet normal  0.00000000E+00 -1.00000000E+00  0.00000000E+00
    outer loop
      vertex -1.30000000E+01 -1.00100005E+00 -1.00000005E-03
      vertex -2.30000000E+01 -1.00100005E+00  9.90100002E+00
      vertex -2.48999996E+01 -1.00100005E+00  9.80000019E+00
    endloop
  endfacet
  facet normal  0.00000000E+00 -1.00000000E+00  0.00000000E+00
    outer loop
      vertex -1.30000000E+01 -1.00100005E+00 -1.00000005E-03
      vertex -2.48999996E+01 -1.00100005E+00  9.80000019E+00
      vertex -2.67999992E+01 -1.00100005E+00  9.19999981E+00
    endloop
  endfacet
  facet normal  0.00000000E+00 -1.00000000E+00  0.00000000E+00
    outer loop
      vertex -1.30000000E+01 -1.00100005E+00 -1.00000005E-03
      vertex -2.67999992E+01 -1.00100005E+00  9.19999981E+00
      vertex -2.85000000E+01 -1.00100005E+00  8.30000019E+00
    endloop
  endfacet
  facet normal  0.00000000E+00 -1.00000000E+00  0.00000000E+00
    outer loop
      vertex -1.30000000E+01 -1.00100005E+00 -1.00000005E-03
      vertex -2.85000000E+01 -1.00100005E+00  8.30000019E+00
      vertex -3.00000000E+01 -1.00100005E+00  7.00000000E+00
    endloop
  endfacet
  facet normal  0.00000000E+00 -1.00000000E+00  0.00000000E+00
    outer loop
      vertex -1.30000000E+01 -1.00100005E+00 -1.00000005E-03
      vertex -3.00000000E+01 -1.00100005E+00  7.00000000E+00
      vertex -3.12999992E+01 -1.00100005E+00  5.50000000E+00
    endloop
  endfacet
  facet normal  0.00000000E+00 -1.00000000E+00  0.00000000E+00
    outer loop
      vertex -1.30000000E+01 -1.00100005E+00 -1.00000005E-03
      vertex -3.12999992E+01 -1.00100005E+00  5.50000000E+00
      vertex -3.22000008E+01 -1.00100005E+00  3.79999995E+00
    endloop
  endfacet
  facet normal  0.00000000E+00 -1.00000000E+00  0.00000000E+00
    outer loop
      vertex -1.30000000E+01 -1.00100005E+00 -1.00000005E-03
      vertex -3.22000008E+01 -1.00100005E+00  3.79999995E+00
      vertex -3.27999992E+01 -1.00100005E+00  1.89999998E+00
    endloop
  endfacet
  facet normal  0.00000000E+00 -1.00000000E+00  0.00000000E+00
    outer loop
      vertex -1.30000000E+01 -1.00100005E+00 -1.00000005E-03
      vertex -3.27999992E+01 -1.00100005E+00  1.89999998E+00
      vertex -3.30009995E+01 -1.00100005E+00 -1.00000005E-03
    endloop
  endfacet
  facet normal  0.00000000E+00  0.00000000E+00 -1.00000000E+00
    outer loop
      vertex -3.09510002E+01  1.19200003E+00 -1.00000005E-03
      vertex -2.90000000E+01  9.99000013E-01 -1.00000005E-03
      vertex -3.30009995E+01 -1.00100005E+00 -1.00000005E-03
    endloop
  endfacet
  facet normal  0.00000000E+00  0.00000000E+00 -1.00000000E+00
    outer loop
      vertex -1.30000000E+01 -1.00100005E+00 -1.00000005E-03
      vertex -3.30009995E+01 -1.00100005E+00 -1.00000005E-03
      vertex -2.70489998E+01  1.19200003E+00 -1.00000005E-03
    endloop
  endfacet
  facet normal  0.00000000E+00  0.00000000E+00 -1.00000000E+00
    outer loop
      vertex -2.19290009E+01  3.92899990E+00 -1.00000005E-03
      vertex -2.06849995E+01  5.44399977E+00 -1.00000005E-03
      vertex -1.30000000E+01 -1.00100005E+00 -1.00000005E-03
    endloop
  endfacet
  facet normal  6.34598017E-01 -7.72842407E-01  0.00000000E+00
    outer loop
      vertex -2.34440002E+01  2.68499994E+00  9.87739754E+00
      vertex -2.30000000E+01  3.04957819E+00  9.90100002E+00
      vertex -2.34440002E+01  2.68499994E+00  2.00009995E+01
    endloop
  endfacet
  facet normal  9.98619258E-01  0.00000000E+00  5.25312610E-02
    outer loop
      vertex -1.30000000E+01 -1.00100005E+00 -1.00000005E-03
      vertex -1.31000004E+01  1.90009995E+01  1.89999998E+00
      vertex -1.31000004E+01 -1.00100005E+00  1.89999998E+00
    endloop
  endfacet
  facet normal  3.01131368E-01  0.00000000E+00  9.53582644E-01
    outer loop
      vertex -1.91000004E+01  1.90009995E+01  9.19999981E+00
      vertex -2.05930805E+01  1.63840008E+01  9.67149925E+00
      vertex -1.97609997E+01  1.48269997E+01  9.40873718E+00
    endloop
  endfacet
  facet normal  0.00000000E+00  1.00000000E+00  0.00000000E+00
    outer loop
      vertex -2.10000000E+01  1.90009995E+01  9.80000019E+00
      vertex -1.91000004E+01  1.90009995E+01  9.19999981E+00
      vertex -2.30615959E+01  1.90009995E+01 -1.00000005E-03
    endloop
  endfacet
  facet normal  6.34598017E-01 -7.72842407E-01  0.00000000E+00
    outer loop
      vertex -2.19290009E+01  3.92899990E+00  2.00009995E+01
      vertex -2.34440002E+01  2.68499994E+00  2.00009995E+01
      vertex -2.30000000E+01  3.04957819E+00  9.90100002E+00
    endloop
  endfacet
  facet normal  9.53582644E-01  0.00000000E+00  3.01131368E-01
    outer loop
      vertex -1.31000004E+01 -1.00100005E+00  1.89999998E+00
      vertex -1.31000004E+01  1.90009995E+01  1.89999998E+00
      vertex -1.36999998E+01 -1.00100005E+00  3.79999995E+00
    endloop
  endfacet
  facet normal  9.53582644E-01  0.00000000E+00  3.01131368E-01
    outer loop
      vertex -1.36999998E+01  1.90009995E+01  3.79999995E+00
      vertex -1.36999998E+01 -1.00100005E+00  3.79999995E+00
      vertex -1.31000004E+01  1.90009995E+01  1.89999998E+00
    endloop
  endfacet
  facet normal  6.34598017E-01 -7.72842407E-01  0.00000000E+00
    outer loop
      vertex -2.19290009E+01  3.92899990E+00  9.84691429E+00
      vertex -2.19290009E+01  3.92899990E+00  2.00009995E+01
      vertex -2.30000000E+01  3.04957819E+00  9.90100002E+00
    endloop
  endfacet
  facet normal  8.83787930E-01  0.00000000E+00  4.67887729E-01
    outer loop
      vertex -1.46000004E+01 -1.00100005E+00  5.50000000E+00
      vertex -1.36999998E+01 -1.00100005E+00  3.79999995E+00
      vertex -1.36999998E+01  1.90009995E+01  3.79999995E+00
    endloop
  endfacet
  facet normal  5.04357293E-02  0.00000000E+00  9.98727322E-01
    outer loop
      vertex -2.30000000E+01  1.90009995E+01  9.90100002E+00
      vertex -2.30000000E+01  1.89504223E+01  9.90100002E+00
      vertex -2.10000000E+01  1.90009995E+01  9.80000019E+00
    endloop
  endfacet
  facet normal  5.04357293E-02  0.00000000E+00  9.98727322E-01
    outer loop
      vertex -2.19290009E+01  1.80709991E+01  9.84691429E+00
      vertex -2.10000000E+01  1.90009995E+01  9.80000019E+00
      vertex -2.30000000E+01  1.89504223E+01  9.90100002E+00
    endloop
  endfacet
  facet normal  5.04357293E-02  0.00000000E+00  9.98727322E-01
    outer loop
      vertex -2.10000000E+01  1.69396210E+01  9.80000019E+00
      vertex -2.10000000E+01  1.90009995E+01  9.80000019E+00
      vertex -2.19290009E+01  1.80709991E+01  9.84691429E+00
    endloop
  endfacet
  facet normal -3.01131368E-01  0.00000000E+00  9.53582644E-01
    outer loop
      vertex -2.51730003E+01  1.76100004E+00  9.71378994E+00
      vertex -2.67999992E+01  1.26752293E+00  9.19999981E+00
      vertex -2.48999996E+01 -1.00100005E+00  9.80000019E+00
    endloop
  endfacet
  facet normal -5.30829467E-02  0.00000000E+00  9.98590112E-01
    outer loop
      vertex -2.30000000E+01  1.90009995E+01  9.90100002E+00
      vertex -2.30615959E+01  1.90009995E+01  9.89772606E+00
      vertex -2.30000000E+01  1.89504223E+01  9.90100002E+00
    endloop
  endfacet
  facet normal  3.01131368E-01  0.00000000E+00  9.53582644E-01
    outer loop
      vertex -1.91000004E+01  1.90009995E+01  9.19999981E+00
      vertex -1.97609997E+01  1.48269997E+01  9.40873718E+00
      vertex -1.91919994E+01  1.29510002E+01  9.22905254E+00
    endloop
  endfacet
  facet normal  3.01131368E-01  0.00000000E+00  9.53582644E-01
    outer loop
      vertex -1.91000004E+01  1.90009995E+01  9.19999981E+00
      vertex -1.91919994E+01  1.29510002E+01  9.22905254E+00
      vertex -1.91000004E+01  1.20209894E+01  9.19999981E+00
    endloop
  endfacet
  facet normal  4.71329391E-01 -8.81957233E-01  0.00000000E+00
    outer loop
      vertex -2.34440002E+01  2.68499994E+00  2.00009995E+01
      vertex -2.51730003E+01  1.76100004E+00  2.00009995E+01
      vertex -2.34440002E+01  2.68499994E+00  9.87739754E+00
    endloop
  endfacet
  facet normal  9.56951439E-01  2.90248066E-01  0.00000000E+00
    outer loop
      vertex -1.97609997E+01  1.48269997E+01  2.00009995E+01
      vertex -1.91919994E+01  1.29510002E+01  2.00009995E+01
      vertex -1.97609997E+01  1.48269997E+01  9.40873718E+00
    endloop
  endfacet
  facet normal -3.01131368E-01  0.00000000E+00  9.53582644E-01
    outer loop
      vertex -2.48999996E+01  1.90689468E+00  9.80000019E+00
      vertex -2.51730003E+01  1.76100004E+00  9.71378994E+00
      vertex -2.48999996E+01 -1.00100005E+00  9.80000019E+00
    endloop
  endfacet
  facet normal  4.71329391E-01 -8.81957233E-01  0.00000000E+00
    outer loop
      vertex -2.34440002E+01  2.68499994E+00  9.87739754E+00
      vertex -2.51730003E+01  1.76100004E+00  2.00009995E+01
      vertex -2.48999996E+01  1.90689468E+00  9.80000019E+00
    endloop
  endfacet
  facet normal -6.54930532E-01  0.00000000E+00  7.55689085E-01
    outer loop
      vertex -3.00000000E+01 -1.00100005E+00  7.00000000E+00
      vertex -2.85000000E+01 -1.00100005E+00  8.30000019E+00
      vertex -2.90000000E+01  9.99000013E-01  7.86666679E+00
    endloop
  endfacet
  facet normal  6.34598017E-01  7.72842407E-01  0.00000000E+00
    outer loop
      vertex -2.30000000E+01  1.89504223E+01  9.90100002E+00
      vertex -2.19290009E+01  1.80709991E+01  2.00009995E+01
      vertex -2.19290009E+01  1.80709991E+01  9.84691429E+00
    endloop
  endfacet
  facet normal  4.71329391E-01 -8.81957233E-01  0.00000000E+00
    outer loop
      vertex -2.51730003E+01  1.76100004E+00  2.00009995E+01
      vertex -2.51730003E+01  1.76100004E+00  9.71378994E+00
      vertex -2.48999996E+01  1.90689468E+00  9.80000019E+00
    endloop
  endfacet
  facet normal  9.56951439E-01  2.90248066E-01  0.00000000E+00
    outer loop
      vertex -1.91919994E+01  1.29510002E+01  9.22905254E+00
      vertex -1.97609997E+01  1.48269997E+01  9.40873718E+00
      vertex -1.91919994E+01  1.29510002E+01  2.00009995E+01
    endloop
  endfacet
  facet normal  6.34598017E-01  7.72842407E-01  0.00000000E+00
    outer loop
      vertex -2.34440002E+01  1.93150005E+01  2.00009995E+01
      vertex -2.19290009E+01  1.80709991E+01  2.00009995E+01
      vertex -2.30000000E+01  1.89504223E+01  9.90100002E+00
    endloop
  endfacet
  facet normal -3.01131368E-01  0.00000000E+00  9.53582644E-01
    outer loop
      vertex -2.67999992E+01  1.26752293E+00  9.19999981E+00
      vertex -2.67999992E+01 -1.00100005E+00  9.19999981E+00
      vertex -2.48999996E+01 -1.00100005E+00  9.80000019E+00
    endloop
  endfacet
  facet normal -8.83787930E-01  0.00000000E+00  4.67887729E-01
    outer loop
      vertex -3.12999992E+01 -1.00100005E+00  5.50000000E+00
      vertex -3.12999992E+01  1.29785347E+00  5.50000000E+00
      vertex -3.22000008E+01 -1.00100005E+00  3.79999995E+00
    endloop
  endfacet
  facet normal  4.67887729E-01  0.00000000E+00  8.83787930E-01
    outer loop
      vertex -1.89990005E+01  1.10000000E+01  9.14652920E+00
      vertex -1.73999996E+01  1.90009995E+01  8.30000019E+00
      vertex -1.91000004E+01  1.20209894E+01  9.19999981E+00
    endloop
  endfacet
  facet normal -4.67887729E-01  0.00000000E+00  8.83787930E-01
    outer loop
      vertex -2.67999992E+01  1.26752293E+00  9.19999981E+00
      vertex -2.70489998E+01  1.19200003E+00  9.06817627E+00
      vertex -2.67999992E+01 -1.00100005E+00  9.19999981E+00
    endloop
  endfacet
  facet normal  6.34598017E-01  7.72842407E-01  0.00000000E+00
    outer loop
      vertex -2.30615959E+01  1.90009995E+01  9.89772606E+00
      vertex -2.34440002E+01  1.93150005E+01  2.00009995E+01
      vertex -2.30000000E+01  1.89504223E+01  9.90100002E+00
    endloop
  endfacet
  facet normal  0.00000000E+00  0.00000000E+00 -1.00000000E+00
    outer loop
      vertex -1.30000000E+01 -1.00100005E+00 -1.00000005E-03
      vertex -1.89990005E+01  1.10000000E+01 -1.00000005E-03
      vertex -1.30000000E+01  1.90009995E+01 -1.00000005E-03
    endloop
  endfacet
  facet normal  0.00000000E+00  0.00000000E+00 -1.00000000E+00
    outer loop
      vertex -1.97609997E+01  7.17299986E+00 -1.00000005E-03
      vertex -1.91919994E+01  9.04899979E+00 -1.00000005E-03
      vertex -1.30000000E+01 -1.00100005E+00 -1.00000005E-03
    endloop
  endfacet
  facet normal  0.00000000E+00  0.00000000E+00 -1.00000000E+00
    outer loop
      vertex -1.30000000E+01  1.90009995E+01 -1.00000005E-03
      vertex -1.89990005E+01  1.10000000E+01 -1.00000005E-03
      vertex -1.91919994E+01  1.29510002E+01 -1.00000005E-03
    endloop
  endfacet
  facet normal  0.00000000E+00  0.00000000E+00 -1.00000000E+00
    outer loop
      vertex -1.91919994E+01  1.29510002E+01 -1.00000005E-03
      vertex -1.97609997E+01  1.48269997E+01 -1.00000005E-03
      vertex -1.30000000E+01  1.90009995E+01 -1.00000005E-03
    endloop
  endfacet
  facet normal  9.95142698E-01  9.84431282E-02  0.00000000E+00
    outer loop
      vertex -1.91000004E+01  1.20209894E+01  9.19999981E+00
      vertex -1.91919994E+01  1.29510002E+01  2.00009995E+01
      vertex -1.89990005E+01  1.10000000E+01  2.00009995E+01
    endloop
  endfacet
  facet normal  3.01131368E-01  0.00000000E+00  9.53582644E-01
    outer loop
      vertex -2.06849995E+01  1.65559998E+01  9.70052624E+00
      vertex -2.05930805E+01  1.63840008E+01  9.67149925E+00
      vertex -1.91000004E+01  1.90009995E+01  9.19999981E+00
    endloop
  endfacet
  facet normal  0.00000000E+00  0.00000000E+00 -1.00000000E+00
    outer loop
      vertex -2.05930805E+01  1.63840008E+01 -1.00000005E-03
      vertex -2.06849995E+01  1.65559998E+01 -1.00000005E-03
      vertex -1.30000000E+01  1.90009995E+01 -1.00000005E-03
    endloop
  endfacet
  facet normal  9.95142698E-01  9.84431282E-02  0.00000000E+00
    outer loop
      vertex -1.89990005E+01  1.10000000E+01  9.14652920E+00
      vertex -1.91000004E+01  1.20209894E+01  9.19999981E+00
      vertex -1.89990005E+01  1.10000000E+01  2.00009995E+01
    endloop
  endfacet
  facet normal  0.00000000E+00  0.00000000E+00 -1.00000000E+00
    outer loop
      vertex -2.30615959E+01  1.90009995E+01 -1.00000005E-03
      vertex -1.30000000E+01  1.90009995E+01 -1.00000005E-03
      vertex -2.19290009E+01  1.80709991E+01 -1.00000005E-03
    endloop
  endfacet
  facet normal  0.00000000E+00  0.00000000E+00 -1.00000000E+00
    outer loop
      vertex -2.19290009E+01  1.80709991E+01 -1.00000005E-03
      vertex -1.30000000E+01  1.90009995E+01 -1.00000005E-03
      vertex -2.06849995E+01  1.65559998E+01 -1.00000005E-03
    endloop
  endfacet
  facet normal  9.95142698E-01  9.84431282E-02  0.00000000E+00
    outer loop
      vertex -1.91919994E+01  1.29510002E+01  2.00009995E+01
      vertex -1.91000004E+01  1.20209894E+01  9.19999981E+00
      vertex -1.91919994E+01  1.29510002E+01  9.22905254E+00
    endloop
  endfacet
  facet normal -9.94456589E-01  0.00000000E+00  1.05147704E-01
    outer loop
      vertex -3.27999992E+01 -1.00100005E+00  1.89999998E+00
      vertex -3.27999992E+01  1.75281072E+00  1.89999998E+00
      vertex -3.28269997E+01  1.76100004E+00  1.64464176E+00
    endloop
  endfacet
  facet normal -9.94456589E-01  0.00000000E+00  1.05147704E-01
    outer loop
      vertex -3.30009995E+01  1.85398781E+00 -1.00000005E-03
      vertex -3.30009995E+01 -1.00100005E+00 -1.00000005E-03
      vertex -3.30008926E+01  1.85393131E+00 -0.00000000E+00
    endloop
  endfacet
  facet normal  7.72842407E-01  6.34598017E-01  0.00000000E+00
    outer loop
      vertex -2.10000000E+01  1.69396210E+01  9.80000019E+00
      vertex -2.19290009E+01  1.80709991E+01  9.84691429E+00
      vertex -2.06849995E+01  1.65559998E+01  2.00009995E+01
    endloop
  endfacet
  facet normal  2.90248066E-01 -9.56951439E-01  0.00000000E+00
    outer loop
      vertex -2.70489998E+01  1.19200003E+00  9.06817627E+00
      vertex -2.67999992E+01  1.26752293E+00  9.19999981E+00
      vertex -2.70489998E+01  1.19200003E+00  2.00009995E+01
    endloop
  endfacet
  facet normal  2.90248066E-01 -9.56951439E-01  0.00000000E+00
    outer loop
      vertex -2.67999992E+01  1.26752293E+00  9.19999981E+00
      vertex -2.51730003E+01  1.76100004E+00  9.71378994E+00
      vertex -2.70489998E+01  1.19200003E+00  2.00009995E+01
    endloop
  endfacet
  facet normal  2.90248066E-01 -9.56951439E-01  0.00000000E+00
    outer loop
      vertex -2.51730003E+01  1.76100004E+00  2.00009995E+01
      vertex -2.70489998E+01  1.19200003E+00  2.00009995E+01
      vertex -2.51730003E+01  1.76100004E+00  9.71378994E+00
    endloop
  endfacet
  facet normal  0.00000000E+00  0.00000000E+00 -1.00000000E+00
    outer loop
      vertex -3.28269997E+01  2.02390003E+01 -1.00000005E-03
      vertex -3.09510002E+01  2.08080006E+01 -1.00000005E-03
      vertex -3.30009995E+01  1.85398781E+00 -1.00000005E-03
    endloop
  endfacet
  facet normal  0.00000000E+00  0.00000000E+00 -1.00000000E+00
    outer loop
      vertex -3.09510002E+01  2.08080006E+01 -1.00000005E-03
      vertex -2.90000000E+01  2.10009995E+01 -1.00000005E-03
      vertex -3.30009995E+01  1.85398781E+00 -1.00000005E-03
    endloop
  endfacet
  facet normal  0.00000000E+00  0.00000000E+00 -1.00000000E+00
    outer loop
      vertex -3.45559998E+01  1.93150005E+01 -1.00000005E-03
      vertex -3.28269997E+01  2.02390003E+01 -1.00000005E-03
      vertex -3.30009995E+01  1.85398781E+00 -1.00000005E-03
    endloop
  endfacet
  facet normal  0.00000000E+00  0.00000000E+00 -1.00000000E+00
    outer loop
      vertex -2.90000000E+01  2.10009995E+01 -1.00000005E-03
      vertex -2.70489998E+01  2.08080006E+01 -1.00000005E-03
      vertex -3.30009995E+01  1.85398781E+00 -1.00000005E-03
    endloop
  endfacet
  facet normal  0.00000000E+00  0.00000000E+00 -1.00000000E+00
    outer loop
      vertex -3.28269997E+01  1.76100004E+00 -1.00000005E-03
      vertex -3.30009995E+01  1.85398781E+00 -1.00000005E-03
      vertex -2.70489998E+01  2.08080006E+01 -1.00000005E-03
    endloop
  endfacet
  facet normal  0.00000000E+00  0.00000000E+00 -1.00000000E+00
    outer loop
      vertex -2.51730003E+01  2.02390003E+01 -1.00000005E-03
      vertex -3.27680016E+01  1.74310505E+00 -1.00000005E-03
      vertex -2.70489998E+01  2.08080006E+01 -1.00000005E-03
    endloop
  endfacet
  facet normal  0.00000000E+00  0.00000000E+00 -1.00000000E+00
    outer loop
      vertex -2.34440002E+01  1.93150005E+01 -1.00000005E-03
      vertex -3.27680016E+01  1.74310505E+00 -1.00000005E-03
      vertex -2.51730003E+01  2.02390003E+01 -1.00000005E-03
    endloop
  endfacet
  facet normal  0.00000000E+00  0.00000000E+00 -1.00000000E+00
    outer loop
      vertex -2.30615959E+01  1.90009995E+01 -1.00000005E-03
      vertex -3.27680016E+01  1.74310505E+00 -1.00000005E-03
      vertex -2.34440002E+01  1.93150005E+01 -1.00000005E-03
    endloop
  endfacet
  facet normal  0.00000000E+00  0.00000000E+00 -1.00000000E+00
    outer loop
      vertex -2.19290009E+01  1.80709991E+01 -1.00000005E-03
      vertex -3.27680016E+01  1.74310505E+00 -1.00000005E-03
      vertex -2.30615959E+01  1.90009995E+01 -1.00000005E-03
    endloop
  endfacet
  facet normal  0.00000000E+00  0.00000000E+00 -1.00000000E+00
    outer loop
      vertex -2.06849995E+01  1.65559998E+01 -1.00000005E-03
      vertex -3.27680016E+01  1.74310505E+00 -1.00000005E-03
      vertex -2.19290009E+01  1.80709991E+01 -1.00000005E-03
    endloop
  endfacet
  facet normal  0.00000000E+00  0.00000000E+00 -1.00000000E+00
    outer loop
      vertex -2.05930805E+01  1.63840008E+01 -1.00000005E-03
      vertex -3.27680016E+01  1.74310505E+00 -1.00000005E-03
      vertex -2.06849995E+01  1.65559998E+01 -1.00000005E-03
    endloop
  endfacet
  facet normal  0.00000000E+00  0.00000000E+00 -1.00000000E+00
    outer loop
      vertex -3.60709991E+01  1.80709991E+01 -1.00000005E-03
      vertex -3.45559998E+01  1.93150005E+01 -1.00000005E-03
      vertex -3.30009995E+01  1.85398781E+00 -1.00000005E-03
    endloop
  endfacet
  facet normal  7.72842407E-01  6.34598017E-01  0.00000000E+00
    outer loop
      vertex -2.06849995E+01  1.65559998E+01  9.70052624E+00
      vertex -2.10000000E+01  1.69396210E+01  9.80000019E+00
      vertex -2.06849995E+01  1.65559998E+01  2.00009995E+01
    endloop
  endfacet
  facet normal  7.72842407E-01  6.34598017E-01  0.00000000E+00
    outer loop
      vertex -2.19290009E+01  1.80709991E+01  9.84691429E+00
      vertex -2.19290009E+01  1.80709991E+01  2.00009995E+01
      vertex -2.06849995E+01  1.65559998E+01  2.00009995E+01
    endloop
  endfacet
  facet normal -9.53582644E-01  0.00000000E+00  3.01131368E-01
    outer loop
      vertex -3.27999992E+01  1.75281072E+00  1.89999998E+00
      vertex -3.27999992E+01 -1.00100005E+00  1.89999998E+00
      vertex -3.27680016E+01  1.74310505E+00  2.00133324E+00
    endloop
  endfacet
  facet normal -9.53582644E-01  0.00000000E+00  3.01131368E-01
    outer loop
      vertex -3.22000008E+01 -1.00100005E+00  3.79999995E+00
      vertex -3.22000008E+01  1.57082784E+00  3.79999995E+00
      vertex -3.27999992E+01 -1.00100005E+00  1.89999998E+00
    endloop
  endfacet
  facet normal -2.90248066E-01 -9.56951439E-01  0.00000000E+00
    outer loop
      vertex -3.28269997E+01  1.76100004E+00  1.64464176E+00
      vertex -3.27999992E+01  1.75281072E+00  1.89999998E+00
      vertex -3.28269997E+01  1.76100004E+00  2.00009995E+01
    endloop
  endfacet
  facet normal -2.90248066E-01 -9.56951439E-01  0.00000000E+00
    outer loop
      vertex -3.27680016E+01  1.74310505E+00  2.00133324E+00
      vertex -3.28269997E+01  1.76100004E+00  2.00009995E+01
      vertex -3.27999992E+01  1.75281072E+00  1.89999998E+00
    endloop
  endfacet
  facet normal  0.00000000E+00  0.00000000E+00 -1.00000000E+00
    outer loop
      vertex -1.89990005E+01  1.10000000E+01 -1.00000005E-03
      vertex -1.30000000E+01 -1.00100005E+00 -1.00000005E-03
      vertex -1.91919994E+01  9.04899979E+00 -1.00000005E-03
    endloop
  endfacet
  facet normal -4.67887729E-01  0.00000000E+00  8.83787930E-01
    outer loop
      vertex -2.85000000E+01 -1.00100005E+00  8.30000019E+00
      vertex -2.67999992E+01 -1.00100005E+00  9.19999981E+00
      vertex -2.85000000E+01  1.04846179E+00  8.30000019E+00
    endloop
  endfacet
  facet normal -4.67887729E-01  0.00000000E+00  8.83787930E-01
    outer loop
      vertex -2.70489998E+01  1.19200003E+00  9.06817627E+00
      vertex -2.85000000E+01  1.04846179E+00  8.30000019E+00
      vertex -2.67999992E+01 -1.00100005E+00  9.19999981E+00
    endloop
  endfacet
  facet normal  0.00000000E+00  0.00000000E+00 -1.00000000E+00
    outer loop
      vertex -1.97609997E+01  7.17299986E+00 -1.00000005E-03
      vertex -1.30000000E+01 -1.00100005E+00 -1.00000005E-03
      vertex -2.06849995E+01  5.44399977E+00 -1.00000005E-03
    endloop
  endfacet
  facet normal -6.54930532E-01  0.00000000E+00  7.55689085E-01
    outer loop
      vertex -2.85000000E+01  1.04846179E+00  8.30000019E+00
      vertex -2.90000000E+01  9.99000013E-01  7.86666679E+00
      vertex -2.85000000E+01 -1.00100005E+00  8.30000019E+00
    endloop
  endfacet
  facet normal  0.00000000E+00  0.00000000E+00 -1.00000000E+00
    outer loop
      vertex -2.19290009E+01  3.92899990E+00 -1.00000005E-03
      vertex -1.30000000E+01 -1.00100005E+00 -1.00000005E-03
      vertex -2.34440002E+01  2.68499994E+00 -1.00000005E-03
    endloop
  endfacet
  facet normal  0.00000000E+00  0.00000000E+00 -1.00000000E+00
    outer loop
      vertex -2.70489998E+01  1.19200003E+00 -1.00000005E-03
      vertex -2.51730003E+01  1.76100004E+00 -1.00000005E-03
      vertex -1.30000000E+01 -1.00100005E+00 -1.00000005E-03
    endloop
  endfacet
  facet normal -4.71329391E-01 -8.81957233E-01  0.00000000E+00
    outer loop
      vertex -3.45559998E+01  2.68499994E+00  2.00009995E+01
      vertex -3.45559998E+01  2.68499994E+00 -1.00000005E-03
      vertex -3.28269997E+01  1.76100004E+00  1.64464176E+00
    endloop
  endfacet
  facet normal -4.71329391E-01 -8.81957233E-01  0.00000000E+00
    outer loop
      vertex -3.28269997E+01  1.76100004E+00  2.00009995E+01
      vertex -3.45559998E+01  2.68499994E+00  2.00009995E+01
      vertex -3.28269997E+01  1.76100004E+00  1.64464176E+00
    endloop
  endfacet
  facet normal  0.00000000E+00  0.00000000E+00 -1.00000000E+00
    outer loop
      vertex -2.34440002E+01  2.68499994E+00 -1.00000005E-03
      vertex -1.30000000E+01 -1.00100005E+00 -1.00000005E-03
      vertex -2.51730003E+01  1.76100004E+00 -1.00000005E-03
    endloop
  endfacet
  facet normal -6.34598017E-01 -7.72842407E-01  0.00000000E+00
    outer loop
      vertex -3.45559998E+01  2.68499994E+00  2.00009995E+01
      vertex -3.60709991E+01  3.92899990E+00  2.00009995E+01
      vertex -3.45559998E+01  2.68499994E+00 -1.00000005E-03
    endloop
  endfacet
  facet normal  8.81957233E-01  4.71329391E-01  0.00000000E+00
    outer loop
      vertex -1.97609997E+01  1.48269997E+01  9.40873718E+00
      vertex -2.05930805E+01  1.63840008E+01  9.67149925E+00
      vertex -1.97609997E+01  1.48269997E+01  2.00009995E+01
    endloop
  endfacet
  facet normal  0.00000000E+00  0.00000000E+00 -1.00000000E+00
    outer loop
      vertex -2.90000000E+01  9.99000013E-01 -1.00000005E-03
      vertex -2.70489998E+01  1.19200003E+00 -1.00000005E-03
      vertex -3.30009995E+01 -1.00100005E+00 -1.00000005E-03
    endloop
  endfacet
  facet normal  0.00000000E+00  0.00000000E+00 -1.00000000E+00
    outer loop
      vertex -3.27680016E+01  1.74310505E+00 -1.00000005E-03
      vertex -3.09510002E+01  1.19200003E+00 -1.00000005E-03
      vertex -3.30009995E+01 -1.00100005E+00 -1.00000005E-03
    endloop
  endfacet
  facet normal  8.81957233E-01  4.71329391E-01  0.00000000E+00
    outer loop
      vertex -2.05930805E+01  1.63840008E+01  9.67149925E+00
      vertex -2.06849995E+01  1.65559998E+01  9.70052624E+00
      vertex -1.97609997E+01  1.48269997E+01  2.00009995E+01
    endloop
  endfacet
  facet normal  8.81957233E-01  4.71329391E-01  0.00000000E+00
    outer loop
      vertex -2.06849995E+01  1.65559998E+01  2.00009995E+01
      vertex -1.97609997E+01  1.48269997E+01  2.00009995E+01
      vertex -2.06849995E+01  1.65559998E+01  9.70052624E+00
    endloop
  endfacet
  facet normal -9.95142698E-01 -9.84431282E-02  0.00000000E+00
    outer loop
      vertex -3.90009995E+01  1.10000000E+01  2.00009995E+01
      vertex -3.90009995E+01  1.10000000E+01 -1.00000005E-03
      vertex -3.88079987E+01  9.04899979E+00  2.00009995E+01
    endloop
  endfacet
  facet normal  0.00000000E+00  0.00000000E+00 -1.00000000E+00
    outer loop
      vertex -2.05930805E+01  1.63840008E+01 -1.00000005E-03
      vertex -1.30000000E+01  1.90009995E+01 -1.00000005E-03
      vertex -1.97609997E+01  1.48269997E+01 -1.00000005E-03
    endloop
  endfacet
  facet normal -9.95142698E-01  9.84431282E-02  0.00000000E+00
    outer loop
      vertex -3.88079987E+01  1.29510002E+01  2.00009995E+01
      vertex -3.90009995E+01  1.10000000E+01 -1.00000005E-03
      vertex -3.90009995E+01  1.10000000E+01  2.00009995E+01
    endloop
  endfacet
  facet normal  9.84431282E-02 -9.95142698E-01  0.00000000E+00
    outer loop
      vertex -2.90000000E+01  9.99000013E-01  7.86666679E+00
      vertex -2.85000000E+01  1.04846179E+00  8.30000019E+00
      vertex -2.90000000E+01  9.99000013E-01  2.00009995E+01
    endloop
  endfacet
  facet normal  4.67887729E-01  0.00000000E+00  8.83787930E-01
    outer loop
      vertex -1.73999996E+01 -1.00100005E+00  8.30000019E+00
      vertex -1.91000004E+01  9.97901058E+00  9.19999981E+00
      vertex -1.91000004E+01 -1.00100005E+00  9.19999981E+00
    endloop
  endfacet
  facet normal  9.84431282E-02 -9.95142698E-01  0.00000000E+00
    outer loop
      vertex -2.85000000E+01  1.04846179E+00  8.30000019E+00
      vertex -2.70489998E+01  1.19200003E+00  9.06817627E+00
      vertex -2.90000000E+01  9.99000013E-01  2.00009995E+01
    endloop
  endfacet
  facet normal  3.01131368E-01  0.00000000E+00  9.53582644E-01
    outer loop
      vertex -1.91919994E+01  9.04899979E+00  9.22905254E+00
      vertex -1.97609997E+01  7.17299986E+00  9.40873718E+00
      vertex -1.91000004E+01 -1.00100005E+00  9.19999981E+00
    endloop
  endfacet
  facet normal  3.01131368E-01  0.00000000E+00  9.53582644E-01
    outer loop
      vertex -1.91000004E+01  9.97901058E+00  9.19999981E+00
      vertex -1.91919994E+01  9.04899979E+00  9.22905254E+00
      vertex -1.91000004E+01 -1.00100005E+00  9.19999981E+00
    endloop
  endfacet
  facet normal -6.34598017E-01  7.72842407E-01  0.00000000E+00
    outer loop
      vertex -3.45559998E+01  1.93150005E+01  2.00009995E+01
      vertex -3.45559998E+01  1.93150005E+01 -1.00000005E-03
      vertex -3.60709991E+01  1.80709991E+01 -1.00000005E-03
    endloop
  endfacet
  facet normal -4.71329391E-01  8.81957233E-01  0.00000000E+00
    outer loop
      vertex -3.28269997E+01  2.02390003E+01 -1.00000005E-03
      vertex -3.45559998E+01  1.93150005E+01 -1.00000005E-03
      vertex -3.45559998E+01  1.93150005E+01  2.00009995E+01
    endloop
  endfacet
  facet normal  9.84431282E-02 -9.95142698E-01  0.00000000E+00
    outer loop
      vertex -2.70489998E+01  1.19200003E+00  2.00009995E+01
      vertex -2.90000000E+01  9.99000013E-01  2.00009995E+01
      vertex -2.70489998E+01  1.19200003E+00  9.06817627E+00
    endloop
  endfacet
  facet normal  0.00000000E+00  0.00000000E+00 -1.00000000E+00
    outer loop
      vertex -3.28269997E+01  1.76100004E+00 -1.00000005E-03
      vertex -2.70489998E+01  2.08080006E+01 -1.00000005E-03
      vertex -3.27680016E+01  1.74310505E+00 -1.00000005E-03
    endloop
  endfacet
  facet normal  0.00000000E+00  0.00000000E+00 -1.00000000E+00
    outer loop
      vertex -3.27680016E+01  1.74310505E+00 -1.00000005E-03
      vertex -1.97609997E+01  1.48269997E+01 -1.00000005E-03
      vertex -3.09510002E+01  1.19200003E+00 -1.00000005E-03
    endloop
  endfacet
  facet normal  0.00000000E+00  0.00000000E+00 -1.00000000E+00
    outer loop
      vertex -1.97609997E+01  1.48269997E+01 -1.00000005E-03
      vertex -3.27680016E+01  1.74310505E+00 -1.00000005E-03
      vertex -2.05930805E+01  1.63840008E+01 -1.00000005E-03
    endloop
  endfacet
  facet normal  0.00000000E+00  0.00000000E+00 -1.00000000E+00
    outer loop
      vertex -1.91919994E+01  1.29510002E+01 -1.00000005E-03
      vertex -3.09510002E+01  1.19200003E+00 -1.00000005E-03
      vertex -1.97609997E+01  1.48269997E+01 -1.00000005E-03
    endloop
  endfacet
  facet normal  0.00000000E+00  0.00000000E+00 -1.00000000E+00
    outer loop
      vertex -1.91919994E+01  1.29510002E+01 -1.00000005E-03
      vertex -1.89990005E+01  1.10000000E+01 -1.00000005E-03
      vertex -3.09510002E+01  1.19200003E+00 -1.00000005E-03
    endloop
  endfacet
  facet normal  0.00000000E+00  0.00000000E+00 -1.00000000E+00
    outer loop
      vertex -1.89990005E+01  1.10000000E+01 -1.00000005E-03
      vertex -1.91919994E+01  9.04899979E+00 -1.00000005E-03
      vertex -3.09510002E+01  1.19200003E+00 -1.00000005E-03
    endloop
  endfacet
  facet normal  0.00000000E+00  0.00000000E+00 -1.00000000E+00
    outer loop
      vertex -2.90000000E+01  9.99000013E-01 -1.00000005E-03
      vertex -3.09510002E+01  1.19200003E+00 -1.00000005E-03
      vertex -1.91919994E+01  9.04899979E+00 -1.00000005E-03
    endloop
  endfacet
  facet normal  0.00000000E+00  0.00000000E+00 -1.00000000E+00
    outer loop
      vertex -1.97609997E+01  7.17299986E+00 -1.00000005E-03
      vertex -2.70489998E+01  1.19200003E+00 -1.00000005E-03
      vertex -1.91919994E+01  9.04899979E+00 -1.00000005E-03
    endloop
  endfacet
  facet normal  0.00000000E+00  0.00000000E+00 -1.00000000E+00
    outer loop
      vertex -2.06849995E+01  5.44399977E+00 -1.00000005E-03
      vertex -2.70489998E+01  1.19200003E+00 -1.00000005E-03
      vertex -1.97609997E+01  7.17299986E+00 -1.00000005E-03
    endloop
  endfacet
  facet normal  0.00000000E+00  0.00000000E+00 -1.00000000E+00
    outer loop
      vertex -2.19290009E+01  3.92899990E+00 -1.00000005E-03
      vertex -2.70489998E+01  1.19200003E+00 -1.00000005E-03
      vertex -2.06849995E+01  5.44399977E+00 -1.00000005E-03
    endloop
  endfacet
  facet normal  0.00000000E+00  0.00000000E+00 -1.00000000E+00
    outer loop
      vertex -2.34440002E+01  2.68499994E+00 -1.00000005E-03
      vertex -2.51730003E+01  1.76100004E+00 -1.00000005E-03
      vertex -2.19290009E+01  3.92899990E+00 -1.00000005E-03
    endloop
  endfacet
  facet normal  0.00000000E+00  0.00000000E+00 -1.00000000E+00
    outer loop
      vertex -2.70489998E+01  1.19200003E+00 -1.00000005E-03
      vertex -2.19290009E+01  3.92899990E+00 -1.00000005E-03
      vertex -2.51730003E+01  1.76100004E+00 -1.00000005E-03
    endloop
  endfacet
  facet normal  0.00000000E+00  0.00000000E+00 -1.00000000E+00
    outer loop
      vertex -2.90000000E+01  9.99000013E-01 -1.00000005E-03
      vertex -1.91919994E+01  9.04899979E+00 -1.00000005E-03
      vertex -2.70489998E+01  1.19200003E+00 -1.00000005E-03
    endloop
  endfacet
  facet normal  0.00000000E+00  0.00000000E+00 -1.00000000E+00
    outer loop
      vertex -3.28269997E+01  1.76100004E+00 -1.00000005E-03
      vertex -3.30009995E+01 -1.00100005E+00 -1.00000005E-03
      vertex -3.30009995E+01  1.85398781E+00 -1.00000005E-03
    endloop
  endfacet
  facet normal  0.00000000E+00  0.00000000E+00 -1.00000000E+00
    outer loop
      vertex -3.27680016E+01  1.74310505E+00 -1.00000005E-03
      vertex -3.30009995E+01 -1.00100005E+00 -1.00000005E-03
      vertex -3.28269997E+01  1.76100004E+00 -1.00000005E-03
    endloop
  endfacet
  facet normal -6.54930532E-01  0.00000000E+00  7.55689085E-01
    outer loop
      vertex -2.90000000E+01  9.99000013E-01  7.86666679E+00
      vertex -3.00000000E+01  1.09792364E+00  7.00000000E+00
      vertex -3.00000000E+01 -1.00100005E+00  7.00000000E+00
    endloop
  endfacet
  facet normal  0.00000000E+00  1.00000000E+00  0.00000000E+00
    outer loop
      vertex -1.73999996E+01  1.90009995E+01  8.30000019E+00
      vertex -1.58999996E+01  1.90009995E+01  7.00000000E+00
      vertex -2.30615959E+01  1.90009995E+01 -1.00000005E-03
    endloop
  endfacet
  facet normal  9.95142698E-01 -9.84431282E-02  0.00000000E+00
    outer loop
      vertex -1.91919994E+01  9.04899979E+00  2.00009995E+01
      vertex -1.91000004E+01  9.97901058E+00  9.19999981E+00
      vertex -1.89990005E+01  1.10000000E+01  2.00009995E+01
    endloop
  endfacet
  facet normal  2.90248066E-01  9.56951439E-01  0.00000000E+00
    outer loop
      vertex -2.51730003E+01  2.02390003E+01  2.00009995E+01
      vertex -2.51730003E+01  2.02390003E+01 -1.00000005E-03
      vertex -2.70489998E+01  2.08080006E+01 -1.00000005E-03
    endloop
  endfacet
  facet normal -7.55689085E-01  0.00000000E+00  6.54930532E-01
    outer loop
      vertex -3.12999992E+01 -1.00100005E+00  5.50000000E+00
      vertex -3.00000000E+01 -1.00100005E+00  7.00000000E+00
      vertex -3.09510002E+01  1.19200003E+00  5.90269232E+00
    endloop
  endfacet
  facet normal -7.55689085E-01  0.00000000E+00  6.54930532E-01
    outer loop
      vertex -3.00000000E+01  1.09792364E+00  7.00000000E+00
      vertex -3.09510002E+01  1.19200003E+00  5.90269232E+00
      vertex -3.00000000E+01 -1.00100005E+00  7.00000000E+00
    endloop
  endfacet
  facet normal  9.95142698E-01 -9.84431282E-02  0.00000000E+00
    outer loop
      vertex -1.89990005E+01  1.10000000E+01  9.14652920E+00
      vertex -1.89990005E+01  1.10000000E+01  2.00009995E+01
      vertex -1.91000004E+01  9.97901058E+00  9.19999981E+00
    endloop
  endfacet
  facet normal  4.71329391E-01  8.81957233E-01  0.00000000E+00
    outer loop
      vertex -2.51730003E+01  2.02390003E+01 -1.00000005E-03
      vertex -2.51730003E+01  2.02390003E+01  2.00009995E+01
      vertex -2.34440002E+01  1.93150005E+01 -1.00000005E-03
    endloop
  endfacet
  facet normal  4.71329391E-01  8.81957233E-01  0.00000000E+00
    outer loop
      vertex -2.34440002E+01  1.93150005E+01  2.00009995E+01
      vertex -2.34440002E+01  1.93150005E+01 -1.00000005E-03
      vertex -2.51730003E+01  2.02390003E+01  2.00009995E+01
    endloop
  endfacet
  facet normal  9.95142698E-01 -9.84431282E-02  0.00000000E+00
    outer loop
      vertex -1.91919994E+01  9.04899979E+00  2.00009995E+01
      vertex -1.91919994E+01  9.04899979E+00  9.22905254E+00
      vertex -1.91000004E+01  9.97901058E+00  9.19999981E+00
    endloop
  endfacet
  facet normal  0.00000000E+00  0.00000000E+00 -1.00000000E+00
    outer loop
      vertex -3.73149986E+01  1.65559998E+01 -1.00000005E-03
      vertex -3.60709991E+01  1.80709991E+01 -1.00000005E-03
      vertex -3.30009995E+01  1.85398781E+00 -1.00000005E-03
    endloop
  endfacet
  facet normal  0.00000000E+00  0.00000000E+00 -1.00000000E+00
    outer loop
      vertex -3.82389984E+01  1.48269997E+01 -1.00000005E-03
      vertex -3.73149986E+01  1.65559998E+01 -1.00000005E-03
      vertex -3.30009995E+01  1.85398781E+00 -1.00000005E-03
    endloop
  endfacet
  facet normal  0.00000000E+00  0.00000000E+00 -1.00000000E+00
    outer loop
      vertex -3.88079987E+01  1.29510002E+01 -1.00000005E-03
      vertex -3.82389984E+01  1.48269997E+01 -1.00000005E-03
      vertex -3.30009995E+01  1.85398781E+00 -1.00000005E-03
    endloop
  endfacet
  facet normal  0.00000000E+00  0.00000000E+00 -1.00000000E+00
    outer loop
      vertex -3.30009995E+01  1.85398781E+00 -1.00000005E-03
      vertex -3.45559998E+01  2.68499994E+00 -1.00000005E-03
      vertex -3.88079987E+01  1.29510002E+01 -1.00000005E-03
    endloop
  endfacet
  facet normal  0.00000000E+00  0.00000000E+00 -1.00000000E+00
    outer loop
      vertex -3.90009995E+01  1.10000000E+01 -1.00000005E-03
      vertex -3.88079987E+01  1.29510002E+01 -1.00000005E-03
      vertex -3.45559998E+01  2.68499994E+00 -1.00000005E-03
    endloop
  endfacet
  facet normal  0.00000000E+00  0.00000000E+00 -1.00000000E+00
    outer loop
      vertex -3.60709991E+01  3.92899990E+00 -1.00000005E-03
      vertex -3.88079987E+01  9.04899979E+00 -1.00000005E-03
      vertex -3.45559998E+01  2.68499994E+00 -1.00000005E-03
    endloop
  endfacet
  facet normal  0.00000000E+00  0.00000000E+00 -1.00000000E+00
    outer loop
      vertex -3.73149986E+01  5.44399977E+00 -1.00000005E-03
      vertex -3.82389984E+01  7.17299986E+00 -1.00000005E-03
      vertex -3.60709991E+01  3.92899990E+00 -1.00000005E-03
    endloop
  endfacet
  facet normal  0.00000000E+00  0.00000000E+00 -1.00000000E+00
    outer loop
      vertex -3.88079987E+01  9.04899979E+00 -1.00000005E-03
      vertex -3.60709991E+01  3.92899990E+00 -1.00000005E-03
      vertex -3.82389984E+01  7.17299986E+00 -1.00000005E-03
    endloop
  endfacet
  facet normal  0.00000000E+00  0.00000000E+00 -1.00000000E+00
    outer loop
      vertex -3.90009995E+01  1.10000000E+01 -1.00000005E-03
      vertex -3.45559998E+01  2.68499994E+00 -1.00000005E-03
      vertex -3.88079987E+01  9.04899979E+00 -1.00000005E-03
    endloop
  endfacet
  facet normal  0.00000000E+00  1.00000000E+00  0.00000000E+00
    outer loop
      vertex -2.30000000E+01  1.90009995E+01  9.90100002E+00
      vertex -2.10000000E+01  1.90009995E+01  9.80000019E+00
      vertex -2.30615959E+01  1.90009995E+01 -1.00000005E-03
    endloop
  endfacet
  facet normal  0.00000000E+00  1.00000000E+00  0.00000000E+00
    outer loop
      vertex -2.30615959E+01  1.90009995E+01  9.89772606E+00
      vertex -2.30000000E+01  1.90009995E+01  9.90100002E+00
      vertex -2.30615959E+01  1.90009995E+01 -1.00000005E-03
    endloop
  endfacet
  facet normal  6.34598017E-01  7.72842407E-01  0.00000000E+00
    outer loop
      vertex -2.30615959E+01  1.90009995E+01  9.89772606E+00
      vertex -2.30615959E+01  1.90009995E+01 -1.00000005E-03
      vertex -2.34440002E+01  1.93150005E+01 -1.00000005E-03
    endloop
  endfacet
  facet normal  6.34598017E-01  7.72842407E-01  0.00000000E+00
    outer loop
      vertex -2.34440002E+01  1.93150005E+01  2.00009995E+01
      vertex -2.30615959E+01  1.90009995E+01  9.89772606E+00
      vertex -2.34440002E+01  1.93150005E+01 -1.00000005E-03
    endloop
  endfacet
  facet normal  0.00000000E+00  1.00000000E+00  0.00000000E+00
    outer loop
      vertex -1.36999998E+01  1.90009995E+01  3.79999995E+00
      vertex -1.31000004E+01  1.90009995E+01  1.89999998E+00
      vertex -2.30615959E+01  1.90009995E+01 -1.00000005E-03
    endloop
  endfacet
  facet normal  0.00000000E+00  1.00000000E+00  0.00000000E+00
    outer loop
      vertex -1.46000004E+01  1.90009995E+01  5.50000000E+00
      vertex -1.36999998E+01  1.90009995E+01  3.79999995E+00
      vertex -2.30615959E+01  1.90009995E+01 -1.00000005E-03
    endloop
  endfacet
  facet normal  0.00000000E+00  1.00000000E+00  0.00000000E+00
    outer loop
      vertex -1.30000000E+01  1.90009995E+01 -1.00000005E-03
      vertex -2.30615959E+01  1.90009995E+01 -1.00000005E-03
      vertex -1.31000004E+01  1.90009995E+01  1.89999998E+00
    endloop
  endfacet
  facet normal  0.00000000E+00  1.00000000E+00  0.00000000E+00
    outer loop
      vertex -1.58999996E+01  1.90009995E+01  7.00000000E+00
      vertex -1.46000004E+01  1.90009995E+01  5.50000000E+00
      vertex -2.30615959E+01  1.90009995E+01 -1.00000005E-03
    endloop
  endfacet
  facet normal  3.01131368E-01  0.00000000E+00  9.53582644E-01
    outer loop
      vertex -1.97609997E+01  7.17299986E+00  9.40873718E+00
      vertex -2.06849995E+01  5.44399977E+00  9.70052624E+00
      vertex -1.91000004E+01 -1.00100005E+00  9.19999981E+00
    endloop
  endfacet
  facet normal  9.98619258E-01  0.00000000E+00  5.25312610E-02
    outer loop
      vertex -1.30000000E+01 -1.00100005E+00 -1.00000005E-03
      vertex -1.30000000E+01  1.90009995E+01 -1.00000005E-03
      vertex -1.31000004E+01  1.90009995E+01  1.89999998E+00
    endloop
  endfacet
  facet normal -9.94456589E-01  0.00000000E+00  1.05147704E-01
    outer loop
      vertex -3.27999992E+01 -1.00100005E+00  1.89999998E+00
      vertex -3.28269997E+01  1.76100004E+00  1.64464176E+00
      vertex -3.30009995E+01 -1.00100005E+00 -1.00000005E-03
    endloop
  endfacet
  facet normal -9.94456589E-01  0.00000000E+00  1.05147704E-01
    outer loop
      vertex -3.30008926E+01  1.85393131E+00 -0.00000000E+00
      vertex -3.30009995E+01 -1.00100005E+00 -1.00000005E-03
      vertex -3.28269997E+01  1.76100004E+00  1.64464176E+00
    endloop
  endfacet
  facet normal -4.71329391E-01 -8.81957233E-01  0.00000000E+00
    outer loop
      vertex -3.30009995E+01  1.85398781E+00 -1.00000005E-03
      vertex -3.30008926E+01  1.85393131E+00 -0.00000000E+00
      vertex -3.45559998E+01  2.68499994E+00 -1.00000005E-03
    endloop
  endfacet
  facet normal  8.83787930E-01  0.00000000E+00  4.67887729E-01
    outer loop
      vertex -1.46000004E+01  1.90009995E+01  5.50000000E+00
      vertex -1.46000004E+01 -1.00100005E+00  5.50000000E+00
      vertex -1.36999998E+01  1.90009995E+01  3.79999995E+00
    endloop
  endfacet
  facet normal -4.71329391E-01 -8.81957233E-01  0.00000000E+00
    outer loop
      vertex -3.30008926E+01  1.85393131E+00 -0.00000000E+00
      vertex -3.28269997E+01  1.76100004E+00  1.64464176E+00
      vertex -3.45559998E+01  2.68499994E+00 -1.00000005E-03
    endloop
  endfacet
  facet normal  7.55689085E-01  0.00000000E+00  6.54930532E-01
    outer loop
      vertex -1.46000004E+01 -1.00100005E+00  5.50000000E+00
      vertex -1.46000004E+01  1.90009995E+01  5.50000000E+00
      vertex -1.58999996E+01 -1.00100005E+00  7.00000000E+00
    endloop
  endfacet
  facet normal  7.55689085E-01  0.00000000E+00  6.54930532E-01
    outer loop
      vertex -1.58999996E+01  1.90009995E+01  7.00000000E+00
      vertex -1.58999996E+01 -1.00100005E+00  7.00000000E+00
      vertex -1.46000004E+01  1.90009995E+01  5.50000000E+00
    endloop
  endfacet
  facet normal -6.34598017E-01 -7.72842407E-01  0.00000000E+00
    outer loop
      vertex -3.45559998E+01  2.68499994E+00 -1.00000005E-03
      vertex -3.60709991E+01  3.92899990E+00  2.00009995E+01
      vertex -3.60709991E+01  3.92899990E+00 -1.00000005E-03
    endloop
  endfacet
  facet normal  9.56951439E-01 -2.90248066E-01  0.00000000E+00
    outer loop
      vertex -1.91919994E+01  9.04899979E+00  2.00009995E+01
      vertex -1.97609997E+01  7.17299986E+00  2.00009995E+01
      vertex -1.97609997E+01  7.17299986E+00  9.40873718E+00
    endloop
  endfacet
  facet normal  6.54930532E-01  0.00000000E+00  7.55689085E-01
    outer loop
      vertex -1.58999996E+01  1.90009995E+01  7.00000000E+00
      vertex -1.73999996E+01  1.90009995E+01  8.30000019E+00
      vertex -1.73999996E+01 -1.00100005E+00  8.30000019E+00
    endloop
  endfacet
  facet normal  6.54930532E-01  0.00000000E+00  7.55689085E-01
    outer loop
      vertex -1.58999996E+01  1.90009995E+01  7.00000000E+00
      vertex -1.73999996E+01 -1.00100005E+00  8.30000019E+00
      vertex -1.58999996E+01 -1.00100005E+00  7.00000000E+00
    endloop
  endfacet
  facet normal -7.72842407E-01 -6.34598017E-01  0.00000000E+00
    outer loop
      vertex -3.60709991E+01  3.92899990E+00 -1.00000005E-03
      vertex -3.60709991E+01  3.92899990E+00  2.00009995E+01
      vertex -3.73149986E+01  5.44399977E+00 -1.00000005E-03
    endloop
  endfacet
  facet normal -7.72842407E-01 -6.34598017E-01  0.00000000E+00
    outer loop
      vertex -3.73149986E+01  5.44399977E+00  2.00009995E+01
      vertex -3.73149986E+01  5.44399977E+00 -1.00000005E-03
      vertex -3.60709991E+01  3.92899990E+00  2.00009995E+01
    endloop
  endfacet
  facet normal -9.84431282E-02 -9.95142698E-01  0.00000000E+00
    outer loop
      vertex -3.09510002E+01  1.19200003E+00  5.90269232E+00
      vertex -3.00000000E+01  1.09792364E+00  7.00000000E+00
      vertex -3.09510002E+01  1.19200003E+00  2.00009995E+01
    endloop
  endfacet
  facet normal -8.81957233E-01 -4.71329391E-01  0.00000000E+00
    outer loop
      vertex -3.82389984E+01  7.17299986E+00  2.00009995E+01
      vertex -3.82389984E+01  7.17299986E+00 -1.00000005E-03
      vertex -3.73149986E+01  5.44399977E+00 -1.00000005E-03
    endloop
  endfacet
  facet normal -8.81957233E-01 -4.71329391E-01  0.00000000E+00
    outer loop
      vertex -3.82389984E+01  7.17299986E+00  2.00009995E+01
      vertex -3.73149986E+01  5.44399977E+00 -1.00000005E-03
      vertex -3.73149986E+01  5.44399977E+00  2.00009995E+01
    endloop
  endfacet
  facet normal -9.56951439E-01 -2.90248066E-01  0.00000000E+00
    outer loop
      vertex -3.82389984E+01  7.17299986E+00 -1.00000005E-03
      vertex -3.82389984E+01  7.17299986E+00  2.00009995E+01
      vertex -3.88079987E+01  9.04899979E+00 -1.00000005E-03
    endloop
  endfacet
  facet normal -9.56951439E-01 -2.90248066E-01  0.00000000E+00
    outer loop
      vertex -3.88079987E+01  9.04899979E+00  2.00009995E+01
      vertex -3.88079987E+01  9.04899979E+00 -1.00000005E-03
      vertex -3.82389984E+01  7.17299986E+00  2.00009995E+01
    endloop
  endfacet
  facet normal -9.95142698E-01 -9.84431282E-02  0.00000000E+00
    outer loop
      vertex -3.90009995E+01  1.10000000E+01 -1.00000005E-03
      vertex -3.88079987E+01  9.04899979E+00 -1.00000005E-03
      vertex -3.88079987E+01  9.04899979E+00  2.00009995E+01
    endloop
  endfacet
  facet normal  4.67887729E-01  0.00000000E+00  8.83787930E-01
    outer loop
      vertex -1.73999996E+01  1.90009995E+01  8.30000019E+00
      vertex -1.91000004E+01  1.90009995E+01  9.19999981E+00
      vertex -1.91000004E+01  1.20209894E+01  9.19999981E+00
    endloop
  endfacet
  facet normal  4.67887729E-01  0.00000000E+00  8.83787930E-01
    outer loop
      vertex -1.89990005E+01  1.10000000E+01  9.14652920E+00
      vertex -1.91000004E+01  9.97901058E+00  9.19999981E+00
      vertex -1.73999996E+01 -1.00100005E+00  8.30000019E+00
    endloop
  endfacet
  facet normal  4.67887729E-01  0.00000000E+00  8.83787930E-01
    outer loop
      vertex -1.73999996E+01  1.90009995E+01  8.30000019E+00
      vertex -1.89990005E+01  1.10000000E+01  9.14652920E+00
      vertex -1.73999996E+01 -1.00100005E+00  8.30000019E+00
    endloop
  endfacet
  facet normal -9.95142698E-01  9.84431282E-02  0.00000000E+00
    outer loop
      vertex -3.88079987E+01  1.29510002E+01  2.00009995E+01
      vertex -3.88079987E+01  1.29510002E+01 -1.00000005E-03
      vertex -3.90009995E+01  1.10000000E+01 -1.00000005E-03
    endloop
  endfacet
  facet normal -9.56951439E-01  2.90248066E-01  0.00000000E+00
    outer loop
      vertex -3.82389984E+01  1.48269997E+01  2.00009995E+01
      vertex -3.82389984E+01  1.48269997E+01 -1.00000005E-03
      vertex -3.88079987E+01  1.29510002E+01 -1.00000005E-03
    endloop
  endfacet
  facet normal -9.56951439E-01  2.90248066E-01  0.00000000E+00
    outer loop
      vertex -3.82389984E+01  1.48269997E+01  2.00009995E+01
      vertex -3.88079987E+01  1.29510002E+01 -1.00000005E-03
      vertex -3.88079987E+01  1.29510002E+01  2.00009995E+01
    endloop
  endfacet
  facet normal  9.56951439E-01 -2.90248066E-01  0.00000000E+00
    outer loop
      vertex -1.91919994E+01  9.04899979E+00  2.00009995E+01
      vertex -1.97609997E+01  7.17299986E+00  9.40873718E+00
      vertex -1.91919994E+01  9.04899979E+00  9.22905254E+00
    endloop
  endfacet
  facet normal  3.01131368E-01  0.00000000E+00  9.53582644E-01
    outer loop
      vertex -2.10000000E+01 -1.00100005E+00  9.80000019E+00
      vertex -1.91000004E+01 -1.00100005E+00  9.19999981E+00
      vertex -2.10000000E+01  5.06037855E+00  9.80000019E+00
    endloop
  endfacet
  facet normal  3.01131368E-01  0.00000000E+00  9.53582644E-01
    outer loop
      vertex -2.06849995E+01  5.44399977E+00  9.70052624E+00
      vertex -2.10000000E+01  5.06037855E+00  9.80000019E+00
      vertex -1.91000004E+01 -1.00100005E+00  9.19999981E+00
    endloop
  endfacet
  facet normal -9.84431282E-02 -9.95142698E-01  0.00000000E+00
    outer loop
      vertex -2.90000000E+01  9.99000013E-01  2.00009995E+01
      vertex -3.09510002E+01  1.19200003E+00  2.00009995E+01
      vertex -2.90000000E+01  9.99000013E-01  7.86666679E+00
    endloop
  endfacet
  facet normal  0.00000000E+00  0.00000000E+00  1.00000000E+00
    outer loop
      vertex -2.19290009E+01  1.80709991E+01  2.00009995E+01
      vertex -2.51730003E+01  2.02390003E+01  2.00009995E+01
      vertex -2.06849995E+01  1.65559998E+01  2.00009995E+01
    endloop
  endfacet
  facet normal  0.00000000E+00  0.00000000E+00  1.00000000E+00
    outer loop
      vertex -2.34440002E+01  1.93150005E+01  2.00009995E+01
      vertex -2.51730003E+01  2.02390003E+01  2.00009995E+01
      vertex -2.19290009E+01  1.80709991E+01  2.00009995E+01
    endloop
  endfacet
  facet normal  0.00000000E+00  0.00000000E+00  1.00000000E+00
    outer loop
      vertex -1.97609997E+01  1.48269997E+01  2.00009995E+01
      vertex -2.06849995E+01  1.65559998E+01  2.00009995E+01
      vertex -2.51730003E+01  2.02390003E+01  2.00009995E+01
    endloop
  endfacet
  facet normal  0.00000000E+00  0.00000000E+00  1.00000000E+00
    outer loop
      vertex -1.97609997E+01  1.48269997E+01  2.00009995E+01
      vertex -2.51730003E+01  2.02390003E+01  2.00009995E+01
      vertex -2.70489998E+01  2.08080006E+01  2.00009995E+01
    endloop
  endfacet
  facet normal  0.00000000E+00  0.00000000E+00  1.00000000E+00
    outer loop
      vertex -1.97609997E+01  1.48269997E+01  2.00009995E+01
      vertex -2.70489998E+01  2.08080006E+01  2.00009995E+01
      vertex -2.90000000E+01  2.10009995E+01  2.00009995E+01
    endloop
  endfacet
  facet normal  0.00000000E+00  0.00000000E+00  1.00000000E+00
    outer loop
      vertex -1.97609997E+01  1.48269997E+01  2.00009995E+01
      vertex -2.90000000E+01  2.10009995E+01  2.00009995E+01
      vertex -3.09510002E+01  2.08080006E+01  2.00009995E+01
    endloop
  endfacet
  facet normal  0.00000000E+00  0.00000000E+00  1.00000000E+00
    outer loop
      vertex -1.97609997E+01  1.48269997E+01  2.00009995E+01
      vertex -3.09510002E+01  2.08080006E+01  2.00009995E+01
      vertex -3.28269997E+01  2.02390003E+01  2.00009995E+01
    endloop
  endfacet
  facet normal  0.00000000E+00  0.00000000E+00  1.00000000E+00
    outer loop
      vertex -1.97609997E+01  1.48269997E+01  2.00009995E+01
      vertex -3.28269997E+01  2.02390003E+01  2.00009995E+01
      vertex -3.45559998E+01  1.93150005E+01  2.00009995E+01
    endloop
  endfacet
  facet normal  0.00000000E+00  0.00000000E+00  1.00000000E+00
    outer loop
      vertex -3.82389984E+01  1.48269997E+01  2.00009995E+01
      vertex -3.60709991E+01  3.92899990E+00  2.00009995E+01
      vertex -3.73149986E+01  1.65559998E+01  2.00009995E+01
    endloop
  endfacet
  facet normal  0.00000000E+00  0.00000000E+00  1.00000000E+00
    outer loop
      vertex -1.97609997E+01  1.48269997E+01  2.00009995E+01
      vertex -3.45559998E+01  1.93150005E+01  2.00009995E+01
      vertex -3.60709991E+01  1.80709991E+01  2.00009995E+01
    endloop
  endfacet
  facet normal  5.04357293E-02  0.00000000E+00  9.98727322E-01
    outer loop
      vertex -2.30000000E+01 -1.00100005E+00  9.90100002E+00
      vertex -2.10000000E+01 -1.00100005E+00  9.80000019E+00
      vertex -2.30000000E+01  3.04957819E+00  9.90100002E+00
    endloop
  endfacet
  facet normal  5.04357293E-02  0.00000000E+00  9.98727322E-01
    outer loop
      vertex -2.10000000E+01  5.06037855E+00  9.80000019E+00
      vertex -2.19290009E+01  3.92899990E+00  9.84691429E+00
      vertex -2.10000000E+01 -1.00100005E+00  9.80000019E+00
    endloop
  endfacet
  facet normal  0.00000000E+00  0.00000000E+00  1.00000000E+00
    outer loop
      vertex -1.91919994E+01  1.29510002E+01  2.00009995E+01
      vertex -1.97609997E+01  1.48269997E+01  2.00009995E+01
      vertex -3.60709991E+01  1.80709991E+01  2.00009995E+01
    endloop
  endfacet
  facet normal  0.00000000E+00  0.00000000E+00  1.00000000E+00
    outer loop
      vertex -1.89990005E+01  1.10000000E+01  2.00009995E+01
      vertex -1.91919994E+01  1.29510002E+01  2.00009995E+01
      vertex -3.60709991E+01  1.80709991E+01  2.00009995E+01
    endloop
  endfacet
  facet normal  0.00000000E+00  0.00000000E+00  1.00000000E+00
    outer loop
      vertex -3.28269997E+01  1.76100004E+00  2.00009995E+01
      vertex -3.09510002E+01  1.19200003E+00  2.00009995E+01
      vertex -3.60709991E+01  1.80709991E+01  2.00009995E+01
    endloop
  endfacet
  facet normal  0.00000000E+00  0.00000000E+00  1.00000000E+00
    outer loop
      vertex -3.09510002E+01  1.19200003E+00  2.00009995E+01
      vertex -2.90000000E+01  9.99000013E-01  2.00009995E+01
      vertex -3.60709991E+01  1.80709991E+01  2.00009995E+01
    endloop
  endfacet
  facet normal  0.00000000E+00  0.00000000E+00  1.00000000E+00
    outer loop
      vertex -2.90000000E+01  9.99000013E-01  2.00009995E+01
      vertex -2.70489998E+01  1.19200003E+00  2.00009995E+01
      vertex -3.60709991E+01  1.80709991E+01  2.00009995E+01
    endloop
  endfacet
  facet normal  0.00000000E+00  0.00000000E+00  1.00000000E+00
    outer loop
      vertex -2.70489998E+01  1.19200003E+00  2.00009995E+01
      vertex -2.51730003E+01  1.76100004E+00  2.00009995E+01
      vertex -3.60709991E+01  1.80709991E+01  2.00009995E+01
    endloop
  endfacet
  facet normal  0.00000000E+00  0.00000000E+00  1.00000000E+00
    outer loop
      vertex -2.51730003E+01  1.76100004E+00  2.00009995E+01
      vertex -2.34440002E+01  2.68499994E+00  2.00009995E+01
      vertex -3.60709991E+01  1.80709991E+01  2.00009995E+01
    endloop
  endfacet
  facet normal  0.00000000E+00  0.00000000E+00  1.00000000E+00
    outer loop
      vertex -2.34440002E+01  2.68499994E+00  2.00009995E+01
      vertex -2.19290009E+01  3.92899990E+00  2.00009995E+01
      vertex -3.60709991E+01  1.80709991E+01  2.00009995E+01
    endloop
  endfacet
  facet normal  0.00000000E+00  0.00000000E+00  1.00000000E+00
    outer loop
      vertex -2.19290009E+01  3.92899990E+00  2.00009995E+01
      vertex -2.06849995E+01  5.44399977E+00  2.00009995E+01
      vertex -3.60709991E+01  1.80709991E+01  2.00009995E+01
    endloop
  endfacet
  facet normal  0.00000000E+00  0.00000000E+00  1.00000000E+00
    outer loop
      vertex -1.97609997E+01  7.17299986E+00  2.00009995E+01
      vertex -3.60709991E+01  1.80709991E+01  2.00009995E+01
      vertex -2.06849995E+01  5.44399977E+00  2.00009995E+01
    endloop
  endfacet
  facet normal  0.00000000E+00  0.00000000E+00  1.00000000E+00
    outer loop
      vertex -1.91919994E+01  9.04899979E+00  2.00009995E+01
      vertex -3.60709991E+01  1.80709991E+01  2.00009995E+01
      vertex -1.97609997E+01  7.17299986E+00  2.00009995E+01
    endloop
  endfacet
  facet normal  0.00000000E+00  0.00000000E+00  1.00000000E+00
    outer loop
      vertex -1.89990005E+01  1.10000000E+01  2.00009995E+01
      vertex -3.60709991E+01  1.80709991E+01  2.00009995E+01
      vertex -1.91919994E+01  9.04899979E+00  2.00009995E+01
    endloop
  endfacet
  facet normal -9.84431282E-02 -9.95142698E-01  0.00000000E+00
    outer loop
      vertex -2.90000000E+01  9.99000013E-01  7.86666679E+00
      vertex -3.09510002E+01  1.19200003E+00  2.00009995E+01
      vertex -3.00000000E+01  1.09792364E+00  7.00000000E+00
    endloop
  endfacet
  facet normal  8.81957233E-01 -4.71329391E-01  0.00000000E+00
    outer loop
      vertex -2.06849995E+01  5.44399977E+00  2.00009995E+01
      vertex -2.06849995E+01  5.44399977E+00  9.70052624E+00
      vertex -1.97609997E+01  7.17299986E+00  2.00009995E+01
    endloop
  endfacet
  facet normal  0.00000000E+00  0.00000000E+00  1.00000000E+00
    outer loop
      vertex -3.90009995E+01  1.10000000E+01  2.00009995E+01
      vertex -3.88079987E+01  9.04899979E+00  2.00009995E+01
      vertex -3.88079987E+01  1.29510002E+01  2.00009995E+01
    endloop
  endfacet
  facet normal  0.00000000E+00  0.00000000E+00  1.00000000E+00
    outer loop
      vertex -3.88079987E+01  9.04899979E+00  2.00009995E+01
      vertex -3.82389984E+01  7.17299986E+00  2.00009995E+01
      vertex -3.88079987E+01  1.29510002E+01  2.00009995E+01
    endloop
  endfacet
  facet normal  0.00000000E+00  0.00000000E+00  1.00000000E+00
    outer loop
      vertex -3.82389984E+01  1.48269997E+01  2.00009995E+01
      vertex -3.88079987E+01  1.29510002E+01  2.00009995E+01
      vertex -3.82389984E+01  7.17299986E+00  2.00009995E+01
    endloop
  endfacet
  facet normal  0.00000000E+00  0.00000000E+00  1.00000000E+00
    outer loop
      vertex -3.82389984E+01  1.48269997E+01  2.00009995E+01
      vertex -3.82389984E+01  7.17299986E+00  2.00009995E+01
      vertex -3.73149986E+01  5.44399977E+00  2.00009995E+01
    endloop
  endfacet
  facet normal  0.00000000E+00  0.00000000E+00  1.00000000E+00
    outer loop
      vertex -3.82389984E+01  1.48269997E+01  2.00009995E+01
      vertex -3.73149986E+01  5.44399977E+00  2.00009995E+01
      vertex -3.60709991E+01  3.92899990E+00  2.00009995E+01
    endloop
  endfacet
  facet normal  0.00000000E+00  0.00000000E+00  1.00000000E+00
    outer loop
      vertex -3.45559998E+01  2.68499994E+00  2.00009995E+01
      vertex -3.60709991E+01  1.80709991E+01  2.00009995E+01
      vertex -3.60709991E+01  3.92899990E+00  2.00009995E+01
    endloop
  endfacet
  facet normal  0.00000000E+00  0.00000000E+00  1.00000000E+00
    outer loop
      vertex -3.28269997E+01  1.76100004E+00  2.00009995E+01
      vertex -3.60709991E+01  1.80709991E+01  2.00009995E+01
      vertex -3.45559998E+01  2.68499994E+00  2.00009995E+01
    endloop
  endfacet
  facet normal  0.00000000E+00  0.00000000E+00  1.00000000E+00
    outer loop
      vertex -3.60709991E+01  1.80709991E+01  2.00009995E+01
      vertex -3.73149986E+01  1.65559998E+01  2.00009995E+01
      vertex -3.60709991E+01  3.92899990E+00  2.00009995E+01
    endloop
  endfacet
  facet normal -7.55689085E-01  0.00000000E+00  6.54930532E-01
    outer loop
      vertex -3.09510002E+01  1.19200003E+00  5.90269232E+00
      vertex -3.12999992E+01  1.29785347E+00  5.50000000E+00
      vertex -3.12999992E+01 -1.00100005E+00  5.50000000E+00
    endloop
  endfacet
  facet normal  8.81957233E-01 -4.71329391E-01  0.00000000E+00
    outer loop
      vertex -1.97609997E+01  7.17299986E+00  9.40873718E+00
      vertex -1.97609997E+01  7.17299986E+00  2.00009995E+01
      vertex -2.06849995E+01  5.44399977E+00  9.70052624E+00
    endloop
  endfacet
  facet normal -8.81957233E-01  4.71329391E-01  0.00000000E+00
    outer loop
      vertex -3.73149986E+01  1.65559998E+01 -1.00000005E-03
      vertex -3.82389984E+01  1.48269997E+01 -1.00000005E-03
      vertex -3.82389984E+01  1.48269997E+01  2.00009995E+01
    endloop
  endfacet
  facet normal -8.81957233E-01  4.71329391E-01  0.00000000E+00
    outer loop
      vertex -3.73149986E+01  1.65559998E+01  2.00009995E+01
      vertex -3.73149986E+01  1.65559998E+01 -1.00000005E-03
      vertex -3.82389984E+01  1.48269997E+01  2.00009995E+01
    endloop
  endfacet
  facet normal -8.83787930E-01  0.00000000E+00  4.67887729E-01
    outer loop
      vertex -3.12999992E+01  1.29785347E+00  5.50000000E+00
      vertex -3.22000008E+01  1.57082784E+00  3.79999995E+00
      vertex -3.22000008E+01 -1.00100005E+00  3.79999995E+00
    endloop
  endfacet
  facet normal -7.72842407E-01  6.34598017E-01  0.00000000E+00
    outer loop
      vertex -3.60709991E+01  1.80709991E+01  2.00009995E+01
      vertex -3.60709991E+01  1.80709991E+01 -1.00000005E-03
      vertex -3.73149986E+01  1.65559998E+01 -1.00000005E-03
    endloop
  endfacet
  facet normal -7.72842407E-01  6.34598017E-01  0.00000000E+00
    outer loop
      vertex -3.60709991E+01  1.80709991E+01  2.00009995E+01
      vertex -3.73149986E+01  1.65559998E+01 -1.00000005E-03
      vertex -3.73149986E+01  1.65559998E+01  2.00009995E+01
    endloop
  endfacet
  facet normal  5.04357293E-02  0.00000000E+00  9.98727322E-01
    outer loop
      vertex -2.19290009E+01  3.92899990E+00  9.84691429E+00
      vertex -2.30000000E+01  3.04957819E+00  9.90100002E+00
      vertex -2.10000000E+01 -1.00100005E+00  9.80000019E+00
    endloop
  endfacet
  facet normal -6.34598017E-01  7.72842407E-01  0.00000000E+00
    outer loop
      vertex -3.45559998E+01  1.93150005E+01  2.00009995E+01
      vertex -3.60709991E+01  1.80709991E+01 -1.00000005E-03
      vertex -3.60709991E+01  1.80709991E+01  2.00009995E+01
    endloop
  endfacet
  facet normal -9.53582644E-01  0.00000000E+00  3.01131368E-01
    outer loop
      vertex -3.27680016E+01  1.74310505E+00  2.00133324E+00
      vertex -3.27999992E+01 -1.00100005E+00  1.89999998E+00
      vertex -3.22000008E+01  1.57082784E+00  3.79999995E+00
    endloop
  endfacet
  facet normal -5.30829467E-02  0.00000000E+00  9.98590112E-01
    outer loop
      vertex -2.30000000E+01  3.04957819E+00  9.90100002E+00
      vertex -2.34440002E+01  2.68499994E+00  9.87739754E+00
      vertex -2.30000000E+01 -1.00100005E+00  9.90100002E+00
    endloop
  endfacet
  facet normal -4.71329391E-01  8.81957233E-01  0.00000000E+00
    outer loop
      vertex -3.28269997E+01  2.02390003E+01  2.00009995E+01
      vertex -3.28269997E+01  2.02390003E+01 -1.00000005E-03
      vertex -3.45559998E+01  1.93150005E+01  2.00009995E+01
    endloop
  endfacet
  facet normal -2.90248066E-01  9.56951439E-01  0.00000000E+00
    outer loop
      vertex -3.28269997E+01  2.02390003E+01 -1.00000005E-03
      vertex -3.28269997E+01  2.02390003E+01  2.00009995E+01
      vertex -3.09510002E+01  2.08080006E+01 -1.00000005E-03
    endloop
  endfacet
  facet normal -2.90248066E-01  9.56951439E-01  0.00000000E+00
    outer loop
      vertex -3.09510002E+01  2.08080006E+01  2.00009995E+01
      vertex -3.09510002E+01  2.08080006E+01 -1.00000005E-03
      vertex -3.28269997E+01  2.02390003E+01  2.00009995E+01
    endloop
  endfacet
  facet normal  7.72842407E-01 -6.34598017E-01  0.00000000E+00
    outer loop
      vertex -2.19290009E+01  3.92899990E+00  9.84691429E+00
      vertex -2.06849995E+01  5.44399977E+00  2.00009995E+01
      vertex -2.19290009E+01  3.92899990E+00  2.00009995E+01
    endloop
  endfacet
  facet normal -9.84431282E-02  9.95142698E-01  0.00000000E+00
    outer loop
      vertex -2.90000000E+01  2.10009995E+01  2.00009995E+01
      vertex -2.90000000E+01  2.10009995E+01 -1.00000005E-03
      vertex -3.09510002E+01  2.08080006E+01 -1.00000005E-03
    endloop
  endfacet
  facet normal -9.84431282E-02  9.95142698E-01  0.00000000E+00
    outer loop
      vertex -2.90000000E+01  2.10009995E+01  2.00009995E+01
      vertex -3.09510002E+01  2.08080006E+01 -1.00000005E-03
      vertex -3.09510002E+01  2.08080006E+01  2.00009995E+01
    endloop
  endfacet
  facet normal -2.90248066E-01 -9.56951439E-01  0.00000000E+00
    outer loop
      vertex -3.09510002E+01  1.19200003E+00  2.00009995E+01
      vertex -3.28269997E+01  1.76100004E+00  2.00009995E+01
      vertex -3.09510002E+01  1.19200003E+00  5.90269232E+00
    endloop
  endfacet
  facet normal  9.84431282E-02  9.95142698E-01  0.00000000E+00
    outer loop
      vertex -2.90000000E+01  2.10009995E+01 -1.00000005E-03
      vertex -2.90000000E+01  2.10009995E+01  2.00009995E+01
      vertex -2.70489998E+01  2.08080006E+01 -1.00000005E-03
    endloop
  endfacet
  facet normal  9.84431282E-02  9.95142698E-01  0.00000000E+00
    outer loop
      vertex -2.70489998E+01  2.08080006E+01  2.00009995E+01
      vertex -2.70489998E+01  2.08080006E+01 -1.00000005E-03
      vertex -2.90000000E+01  2.10009995E+01  2.00009995E+01
    endloop
  endfacet
  facet normal  0.00000000E+00  1.00000000E+00  0.00000000E+00
    outer loop
      vertex -1.91000004E+01  1.90009995E+01  9.19999981E+00
      vertex -1.73999996E+01  1.90009995E+01  8.30000019E+00
      vertex -2.30615959E+01  1.90009995E+01 -1.00000005E-03
    endloop
  endfacet
  facet normal  7.72842407E-01 -6.34598017E-01  0.00000000E+00
    outer loop
      vertex -2.10000000E+01  5.06037855E+00  9.80000019E+00
      vertex -2.06849995E+01  5.44399977E+00  2.00009995E+01
      vertex -2.19290009E+01  3.92899990E+00  9.84691429E+00
    endloop
  endfacet
  facet normal  7.72842407E-01 -6.34598017E-01  0.00000000E+00
    outer loop
      vertex -2.06849995E+01  5.44399977E+00  2.00009995E+01
      vertex -2.10000000E+01  5.06037855E+00  9.80000019E+00
      vertex -2.06849995E+01  5.44399977E+00  9.70052624E+00
    endloop
  endfacet
  facet normal  3.01131368E-01  0.00000000E+00  9.53582644E-01
    outer loop
      vertex -2.10000000E+01  1.90009995E+01  9.80000019E+00
      vertex -2.10000000E+01  1.69396210E+01  9.80000019E+00
      vertex -1.91000004E+01  1.90009995E+01  9.19999981E+00
    endloop
  endfacet
  facet normal  2.90248066E-01  9.56951439E-01  0.00000000E+00
    outer loop
      vertex -2.51730003E+01  2.02390003E+01  2.00009995E+01
      vertex -2.70489998E+01  2.08080006E+01 -1.00000005E-03
      vertex -2.70489998E+01  2.08080006E+01  2.00009995E+01
    endloop
  endfacet
  facet normal -5.30829467E-02  0.00000000E+00  9.98590112E-01
    outer loop
      vertex -2.48999996E+01 -1.00100005E+00  9.80000019E+00
      vertex -2.30000000E+01 -1.00100005E+00  9.90100002E+00
      vertex -2.48999996E+01  1.90689468E+00  9.80000019E+00
    endloop
  endfacet
  facet normal -5.30829467E-02  0.00000000E+00  9.98590112E-01
    outer loop
      vertex -2.34440002E+01  2.68499994E+00  9.87739754E+00
      vertex -2.48999996E+01  1.90689468E+00  9.80000019E+00
      vertex -2.30000000E+01 -1.00100005E+00  9.90100002E+00
    endloop
  endfacet
  facet normal -2.90248066E-01 -9.56951439E-01  0.00000000E+00
    outer loop
      vertex -3.09510002E+01  1.19200003E+00  5.90269232E+00
      vertex -3.28269997E+01  1.76100004E+00  2.00009995E+01
      vertex -3.12999992E+01  1.29785347E+00  5.50000000E+00
    endloop
  endfacet
  facet normal -2.90248066E-01 -9.56951439E-01  0.00000000E+00
    outer loop
      vertex -3.12999992E+01  1.29785347E+00  5.50000000E+00
      vertex -3.28269997E+01  1.76100004E+00  2.00009995E+01
      vertex -3.22000008E+01  1.57082784E+00  3.79999995E+00
    endloop
  endfacet
  facet normal -2.90248066E-01 -9.56951439E-01  0.00000000E+00
    outer loop
      vertex -3.27680016E+01  1.74310505E+00  2.00133324E+00
      vertex -3.22000008E+01  1.57082784E+00  3.79999995E+00
      vertex -3.28269997E+01  1.76100004E+00  2.00009995E+01
    endloop
  endfacet
endsolid  Processed by ADMesh version 0.95
